# xmcd
#
# Track frame offsets:
#	150
#	4808
#	22753
#	40273
#	56607
#	72390
#	90013
#	107353
#	127149
#	149941
#	168371
#	186659
#
# Disc length: 2550 seconds
#
# Revision: 1
# Processed by: cddbd v1.4PL0 Copyright (c) Steve Scherf et al.
# Submitted via: audiograbber 1.81.02
#
DISCID=a309f40c
DTITLE=Carmen Consoli - Confusa e felice
DYEAR=1900
DGENRE=
TTITLE0=Bonsai #1
TTITLE1=Uguale a ieri
TTITLE2=Diversi
TTITLE3=Confusa e felice
TTITLE4=Fidarmi delle tue carezze
TTITLE5=Un sorso in piu'
TTITLE6=Venere
TTITLE7=Per niente stanca
TTITLE8=Fino all'ultimo
TTITLE9=Blunotte
TTITLE10=La bellezza delle cose
TTITLE11=Bonsai #2
EXTD=
EXTT0=
EXTT1=
EXTT2=
EXTT3=
EXTT4=
EXTT5=
EXTT6=
EXTT7=
EXTT8=
EXTT9=
EXTT10=
EXTT11=
PLAYORDER=
